 <svg version="1.1" xmlns="http://www.w3.org/2000/svg"
                        xmlns:xlink="http://www.w3.org/1999/xlink" width="104.35659" height="110.277"
                        viewBox="0,0,104.35659,110.277">
                        <g transform="translate(-187.82171,-124.8615)">
                            <g fill="none" stroke="grey" stroke-width="7" stroke-miterlimit="10">
                                <path
                                    d="M262.65053,183.48337c-4.37573,28.45309 -18.06394,49.95931 -30.57348,48.0355c-12.50955,-1.92381 -19.10331,-26.54915 -14.72758,-55.00223c4.37573,-28.45309 18.06394,-49.95931 30.57348,-48.0355c12.50955,1.92381 19.10331,26.54915 14.72758,55.00223z" />
                                <path
                                    d="M254.76033,162.46966c22.02122,18.5416 33.26453,41.42113 25.11262,51.10287c-8.15191,9.68174 -32.61206,2.49941 -54.63328,-16.04218c-22.02122,-18.5416 -33.26453,-41.42113 -25.11262,-51.10287c8.15191,-9.68174 32.61206,-2.49941 54.63328,16.04218z" />
                                <path
                                    d="M231.80553,158.59834c26.88428,-10.29371 52.34708,-9.05656 56.87277,2.76325c4.52568,11.81982 -13.59954,29.74636 -40.48382,40.04006c-26.88428,10.29371 -52.34708,9.05656 -56.87277,-2.76325c-4.52568,-11.81982 13.59954,-29.74636 40.48382,-40.04006z" />
                            </g>
                        </g>
                    </svg>